<svg xmlns="http://www.w3.org/2000/svg" viewBox="0 0 1600 520" role="img" aria-labelledby="title desc">
  <title id="title">Grocery planning counter</title>
  <desc id="desc">A kitchen counter with groceries, a shopping list, and price cards.</desc>
  <defs>
    <linearGradient id="counter" x1="0" x2="1" y1="0" y2="1">
      <stop offset="0" stop-color="#24564b"/>
      <stop offset="0.48" stop-color="#2f7462"/>
      <stop offset="1" stop-color="#f2df9b"/>
    </linearGradient>
    <linearGradient id="shade" x1="0" x2="0" y1="0" y2="1">
      <stop offset="0" stop-color="#0b201c" stop-opacity="0.64"/>
      <stop offset="1" stop-color="#0b201c" stop-opacity="0.1"/>
    </linearGradient>
    <filter id="shadow" x="-20%" y="-20%" width="140%" height="150%">
      <feDropShadow dx="0" dy="18" stdDeviation="16" flood-color="#10231f" flood-opacity="0.24"/>
    </filter>
  </defs>
  <rect width="1600" height="520" fill="url(#counter)"/>
  <rect width="920" height="520" fill="url(#shade)"/>
  <path d="M0 384c190-52 363-56 520-12 172 48 321 39 472-27 182-79 393-75 608 12v163H0z" fill="#f8f4df" opacity="0.84"/>
  <g filter="url(#shadow)">
    <rect x="1014" y="58" width="262" height="392" rx="22" fill="#f8fbf7"/>
    <rect x="1042" y="94" width="160" height="16" rx="8" fill="#b8c7bd"/>
    <rect x="1042" y="136" width="196" height="12" rx="6" fill="#d4ddd6"/>
    <rect x="1042" y="170" width="150" height="12" rx="6" fill="#d4ddd6"/>
    <rect x="1042" y="204" width="184" height="12" rx="6" fill="#d4ddd6"/>
    <rect x="1042" y="238" width="132" height="12" rx="6" fill="#d4ddd6"/>
    <rect x="1042" y="294" width="86" height="38" rx="8" fill="#e8f4eb"/>
    <rect x="1144" y="294" width="86" height="38" rx="8" fill="#fff0d0"/>
    <rect x="1042" y="354" width="184" height="12" rx="6" fill="#d4ddd6"/>
    <rect x="1042" y="384" width="126" height="12" rx="6" fill="#d4ddd6"/>
  </g>
  <g filter="url(#shadow)">
    <rect x="1300" y="110" width="172" height="284" rx="26" fill="#172033"/>
    <rect x="1317" y="139" width="138" height="226" rx="14" fill="#f7fbf8"/>
    <rect x="1336" y="160" width="96" height="12" rx="6" fill="#b8c7bd"/>
    <rect x="1336" y="198" width="102" height="36" rx="10" fill="#e6f4ea"/>
    <rect x="1336" y="252" width="82" height="36" rx="10" fill="#fff0d0"/>
    <rect x="1336" y="306" width="108" height="36" rx="10" fill="#e8efff"/>
  </g>
  <g filter="url(#shadow)">
    <path d="M796 322c34-24 84-21 115 8 31 29 30 73-2 99-33 26-87 22-119-8-32-30-29-75 6-99z" fill="#e4412e"/>
    <path d="M845 295c-3 24-24 41-47 38 2-25 23-43 47-38z" fill="#1d7c53"/>
    <path d="M884 302c18 13 23 38 11 56-20-12-25-37-11-56z" fill="#3b9b65"/>
  </g>
  <g filter="url(#shadow)">
    <path d="M686 330c43-5 92 8 126 38-30 34-81 46-125 30-43-15-71-54-64-87 19 13 40 19 63 19z" fill="#f6c74b"/>
    <path d="M696 350c38 2 72 12 103 31" fill="none" stroke="#d49a24" stroke-width="10" stroke-linecap="round"/>
  </g>
  <g filter="url(#shadow)">
    <path d="M1207 425c-26-37-15-93 26-124 36 33 42 89 15 124z" fill="#2f8c62"/>
    <path d="M1258 430c-27-34-18-86 21-119 37 29 47 83 22 119z" fill="#3e9b6e"/>
    <path d="M1306 431c-20-34-8-80 29-106 29 30 35 76 13 106z" fill="#277a58"/>
  </g>
  <g filter="url(#shadow)">
    <rect x="888" y="400" width="166" height="58" rx="16" fill="#fff8d8"/>
    <circle cx="922" cy="430" r="16" fill="#f5b63f"/>
    <circle cx="968" cy="430" r="16" fill="#f5b63f"/>
    <circle cx="1014" cy="430" r="16" fill="#f5b63f"/>
  </g>
  <g opacity="0.72">
    <circle cx="1450" cy="455" r="32" fill="#f25f3a"/>
    <circle cx="1492" cy="452" r="28" fill="#f25f3a"/>
    <circle cx="1530" cy="462" r="24" fill="#f25f3a"/>
    <path d="M1451 418c14-18 34-23 54-15-13 18-31 25-54 15z" fill="#1f7a52"/>
  </g>
</svg>
